#!OML:ASF E:\Style4\Style4.ASF
:FULLY-SPECIFIED
:DEGREES
3746
root -0.00418855 16.7988 -1.52347 3.38768 6.25038 5.18012
lowerback 18.4027 6.56546 0.422253
upperback 12.6028 8.68474 -0.203997
thorax 3.49139 4.45583 -1.72215
lowerneck 7.61627 -6.79682 -6.55181
upperneck -0.541424 -9.41191 7.20444
head -0.799409 -4.81632 3.72902
rclavicle 2.54444e-014 4.77083e-015
rhumerus 25.3911 16.9846 -76.0065
rradius 128.832
rwrist 16.2469
rhand 24.5358 -10.5007
rfingers 7.12502
rthumb 48.7346 -32.3634
lclavicle 2.54444e-014 4.77083e-015
lhumerus 26.742 -13.062 71.9805
lradius 132.967
lwrist -8.61625
lhand 24.2004 46.936
lfingers 7.12502
lthumb 48.426 68.9475
rfemur -32.4073 -11.4474 13.8817
rtibia 57.0016
rfoot -25.9495 -17.1486
rtoes -5.62239
lfemur -31.6812 5.26963 -25.269
ltibia 51.326
lfoot -21.8473 4.83793
ltoes -16.9348
3747
root -0.0170225 16.7889 -1.52327 3.35592 6.60857 5.13689
lowerback 18.412 6.45307 0.280389
upperback 12.6507 8.52208 -0.167924
thorax 3.50618 4.36486 -1.5832
lowerneck 7.48652 -6.69544 -6.60785
upperneck -0.423013 -9.27996 7.20595
head -0.745607 -4.74844 3.72815
rclavicle -4.05521e-014 4.77083e-015
rhumerus 25.1436 16.9831 -76.107
rradius 128.871
rwrist 16.1612
rhand 24.4113 -10.6514
rfingers 7.12502
rthumb 48.6201 -32.5696
lclavicle -4.05521e-014 4.77083e-015
lhumerus 26.6264 -13.1068 71.9261
lradius 132.831
lwrist -8.49683
lhand 24.3553 47.0335
lfingers 7.12502
lthumb 48.5686 68.9766
rfemur -32.3856 -11.6281 13.9699
rtibia 57.1724
rfoot -25.6237 -17.6008
rtoes -7.42511
lfemur -31.7734 5.13098 -25.174
ltibia 51.4766
lfoot -21.8048 4.65693
ltoes -16.9693
3748
root -0.0267633 16.7805 -1.52078 3.31592 6.85562 5.16767
lowerback 18.4016 6.35306 0.0635331
upperback 12.6952 8.36474 -0.148109
thorax 3.52032 4.27207 -1.41948
lowerneck 7.36249 -6.57736 -6.73313
upperneck -0.283243 -9.1338 7.13392
head -0.687417 -4.67196 3.71466
rclavicle 7.79236e-014 0
rhumerus 24.8841 16.9401 -76.2009
rradius 128.903
rwrist 16.227
rhand 24.8651 -10.4268
rfingers 7.12502
rthumb 49.0372 -32.1407
lclavicle 7.79236e-014 0
lhumerus 26.4794 -13.2122 71.9168
lradius 132.751
lwrist -8.54469
lhand 24.5526 47.1713
lfingers 7.12502
lthumb 48.75 69.0265
rfemur -32.3531 -11.737 13.9651
rtibia 57.3118
rfoot -26.07 -17.5869
rtoes -6.3973
lfemur -31.8181 5.08387 -25.1761
ltibia 51.606
lfoot -21.7862 4.5419
ltoes -17.254
3749
root -0.0325065 16.7723 -1.51694 3.26 7.02087 5.19601
lowerback 18.4124 6.2976 -0.0408237
upperback 12.7196 8.28014 -0.154395
thorax 3.52546 4.22403 -1.35728
lowerneck 7.31138 -6.50563 -6.84083
upperneck -0.16006 -9.04982 7.06674
head -0.643267 -4.62773 3.7045
rclavicle 5.80451e-014 1.90833e-014
rhumerus 24.6067 16.7373 -76.2603
rradius 128.924
rwrist 16.3705
rhand 25.56 -10.2744
rfingers 7.12502
rthumb 49.6748 -31.6663
lclavicle 5.80451e-014 1.90833e-014
lhumerus 26.4663 -13.5294 71.9987
lradius 132.613
lwrist -8.66296
lhand 24.8495 47.2866
lfingers 7.12502
lthumb 49.0229 69.0077
rfemur -32.2959 -11.7858 13.9393
rtibia 57.4129
rfoot -26.5395 -17.4932
rtoes -5.16613
lfemur -31.8198 5.06119 -25.1864
ltibia 51.7187
lfoot -21.7949 4.47306
ltoes -17.5228
3750
root -0.0343039 16.7673 -1.51105 3.14179 7.14427 5.06113
lowerback 18.4151 6.24035 0.0786603
upperback 12.7535 8.22454 -0.163901
thorax 3.57862 4.20524 -1.42071
lowerneck 7.36233 -6.4746 -6.92388
upperneck -0.148616 -9.0174 7.13268
head -0.644285 -4.61339 3.74464
rclavicle 7.31528e-014 -4.13472e-014
rhumerus 24.3452 16.4357 -76.2922
rradius 128.935
rwrist 16.4136
rhand 25.9574 -10.4002
rfingers 7.12502
rthumb 50.0387 -31.6026
lclavicle 7.31528e-014 -4.13472e-014
lhumerus 26.6348 -13.8759 71.9987
lradius 132.375
lwrist -8.70005
lhand 25.0241 47.4332
lfingers 7.12502
lthumb 49.1833 69.0744
rfemur -32.1394 -11.8463 14.0757
rtibia 57.4555
rfoot -26.625 -17.5711
rtoes -5.20666
lfemur -31.7492 5.02948 -25.0173
ltibia 51.8249
lfoot -21.8164 4.38634
ltoes -17.5569
3751
root -0.033862 16.7638 -1.50542 3.04401 7.20794 4.97973
lowerback 18.351 6.18269 0.0928112
upperback 12.7922 8.15465 -0.186527
thorax 3.65745 4.17291 -1.43146
lowerneck 7.48073 -6.44152 -6.90548
upperneck -0.271834 -8.97488 7.10971
head -0.710562 -4.59353 3.74321
rclavicle -3.10104e-014 2.14687e-014
rhumerus 24.1003 16.2294 -76.3107
rradius 128.878
rwrist 16.4913
rhand 25.9957 -10.5513
rfingers 7.12502
rthumb 50.0737 -31.7352
lclavicle -3.10104e-014 2.14687e-014
lhumerus 26.8375 -14.1407 71.9255
lradius 132.095
lwrist -8.715
lhand 24.9974 47.5151
lfingers 7.12502
lthumb 49.1588 69.1686
rfemur -31.9995 -11.9142 14.1473
rtibia 57.4736
rfoot -26.711 -17.5383
rtoes -5.06489
lfemur -31.6672 4.96909 -24.9059
ltibia 51.9103
lfoot -21.8248 4.2949
ltoes -17.1632
3752
root -0.0304811 16.7607 -1.49993 2.93976 7.18093 4.97702
lowerback 18.2827 6.11949 -0.0506729
upperback 12.8241 8.05467 -0.195571
thorax 3.70559 4.1138 -1.33958
lowerneck 7.49067 -6.34653 -6.83169
upperneck -0.25529 -8.8479 6.85454
head -0.73188 -4.52537 3.64124
rclavicle -9.85972e-014 6.04305e-014
rhumerus 23.8518 16.1126 -76.3871
rradius 128.757
rwrist 16.5679
rhand 26.301 -10.4517
rfingers 7.12502
rthumb 50.3528 -31.4872
lclavicle -9.85972e-014 6.04305e-014
lhumerus 26.8532 -14.2932 71.9238
lradius 131.92
lwrist -8.80877
lhand 25.1482 47.5269
lfingers 7.12502
lthumb 49.2972 69.1109
rfemur -31.8629 -11.9014 14.1107
rtibia 57.4592
rfoot -26.3493 -17.704
rtoes -6.20912
lfemur -31.5502 4.94118 -24.8984
ltibia 51.9706
lfoot -21.8947 4.31627
ltoes -17.1319
